<svg width="90" height="26" viewBox="0 0 90 26" fill="none" xmlns="http://www.w3.org/2000/svg">
<g filter="url(#filter0_d_1_80)">
<mask id="path-1-outside-1_1_80" maskUnits="userSpaceOnUse" x="4" y="0" width="82" height="18" fill="black">
<rect fill="white" x="4" width="82" height="18"/>
<path d="M9.56818 4.65909L11.9545 12.8636H12.0455L14.4318 4.65909H18L14.1591 16.2955H9.84091L6 4.65909H9.56818Z"/>
<path d="M19.1207 16.2955V4.65909H27.5071V7.20455H22.2798V9.20455H27.0753V11.75H22.2798V13.75H27.4844V16.2955H19.1207ZM21.5526 3.63636C21.1662 3.63636 20.8385 3.50758 20.5696 3.25C20.3007 2.99242 20.1662 2.68182 20.1662 2.31818C20.1662 1.95455 20.3007 1.64394 20.5696 1.38636C20.8385 1.12879 21.1662 1 21.5526 1C21.9276 1 22.2476 1.12879 22.5128 1.38636C22.7817 1.64394 22.9162 1.95455 22.9162 2.31818C22.9162 2.68182 22.7817 2.99242 22.5128 3.25C22.2476 3.50758 21.9276 3.63636 21.5526 3.63636ZM25.1662 3.63636C24.7798 3.63636 24.4522 3.50758 24.1832 3.25C23.9143 2.99242 23.7798 2.68182 23.7798 2.31818C23.7798 1.95455 23.9143 1.64394 24.1832 1.38636C24.4522 1.12879 24.7798 1 25.1662 1C25.5412 1 25.8613 1.12879 26.1264 1.38636C26.3954 1.64394 26.5298 1.95455 26.5298 2.31818C26.5298 2.68182 26.3954 2.99242 26.1264 3.25C25.8613 3.50758 25.5412 3.63636 25.1662 3.63636Z"/>
<path d="M29.0739 16.2955V4.65909H34.0966C34.9602 4.65909 35.7159 4.81629 36.3636 5.13068C37.0114 5.44508 37.5152 5.89773 37.875 6.48864C38.2348 7.07955 38.4148 7.78788 38.4148 8.61364C38.4148 9.44697 38.2292 10.1496 37.858 10.7216C37.4905 11.2936 36.9735 11.7254 36.3068 12.017C35.6439 12.3087 34.8693 12.4545 33.983 12.4545H30.983V10H33.3466C33.7178 10 34.0341 9.95455 34.2955 9.86364C34.5606 9.76894 34.7633 9.61932 34.9034 9.41477C35.0473 9.21023 35.1193 8.94318 35.1193 8.61364C35.1193 8.2803 35.0473 8.00947 34.9034 7.80114C34.7633 7.58902 34.5606 7.43371 34.2955 7.33523C34.0341 7.23295 33.7178 7.18182 33.3466 7.18182H32.233V16.2955H29.0739ZM35.892 10.9545L38.8011 16.2955H35.3693L32.5284 10.9545H35.892Z"/>
<path d="M46.0341 8.29545C46.0038 7.91667 45.8617 7.62121 45.608 7.40909C45.358 7.19697 44.9773 7.09091 44.4659 7.09091C44.1402 7.09091 43.8731 7.13068 43.6648 7.21023C43.4602 7.28598 43.3087 7.39015 43.2102 7.52273C43.1117 7.6553 43.0606 7.80682 43.0568 7.97727C43.0492 8.11742 43.0739 8.24432 43.1307 8.35795C43.1913 8.4678 43.286 8.56818 43.4148 8.65909C43.5436 8.74621 43.7083 8.82576 43.9091 8.89773C44.1098 8.9697 44.3485 9.03409 44.625 9.09091L45.5795 9.29545C46.2235 9.43182 46.7746 9.61174 47.233 9.83523C47.6913 10.0587 48.0663 10.322 48.358 10.625C48.6496 10.9242 48.8636 11.2614 49 11.6364C49.1402 12.0114 49.2121 12.4205 49.2159 12.8636C49.2121 13.6288 49.0208 14.2765 48.642 14.8068C48.2633 15.3371 47.7216 15.7405 47.017 16.017C46.3163 16.2936 45.4735 16.4318 44.4886 16.4318C43.4773 16.4318 42.5947 16.2822 41.8409 15.983C41.0909 15.6837 40.5076 15.2235 40.0909 14.6023C39.678 13.9773 39.4697 13.178 39.4659 12.2045H42.4659C42.4848 12.5606 42.5739 12.8598 42.733 13.1023C42.892 13.3447 43.1155 13.5284 43.4034 13.6534C43.6951 13.7784 44.0417 13.8409 44.4432 13.8409C44.7803 13.8409 45.0625 13.7992 45.2898 13.7159C45.517 13.6326 45.6894 13.517 45.8068 13.3693C45.9242 13.2216 45.9848 13.053 45.9886 12.8636C45.9848 12.6856 45.9261 12.5303 45.8125 12.3977C45.7027 12.2614 45.5208 12.1402 45.267 12.0341C45.0133 11.9242 44.6705 11.822 44.2386 11.7273L43.0795 11.4773C42.0492 11.2538 41.2367 10.8807 40.642 10.358C40.0511 9.83144 39.7576 9.11364 39.7614 8.20455C39.7576 7.46591 39.9545 6.82008 40.3523 6.26705C40.7538 5.71023 41.3087 5.27652 42.017 4.96591C42.7292 4.6553 43.5455 4.5 44.4659 4.5C45.4053 4.5 46.2178 4.6572 46.9034 4.97159C47.589 5.28598 48.1174 5.72917 48.4886 6.30114C48.8636 6.86932 49.053 7.53409 49.0568 8.29545H46.0341Z"/>
<path d="M50.0994 7.20455V4.65909H60.2131V7.20455H56.7131V16.2955H53.5994V7.20455H50.0994Z"/>
<path d="M61.402 16.2955V4.65909H64.5611V9.36364H64.7202L68.2202 4.65909H71.902L67.9702 9.84091L71.9929 16.2955H68.2202L65.6065 11.9318L64.5611 13.2955V16.2955H61.402Z"/>
<path d="M75.8622 16.2955H72.4531L76.294 4.65909H80.6122L84.4531 16.2955H81.044L78.4986 7.86364H78.4077L75.8622 16.2955ZM75.2259 11.7045H81.6349V14.0682H75.2259V11.7045Z"/>
</mask>
<path d="M9.56818 4.65909L11.9545 12.8636H12.0455L14.4318 4.65909H18L14.1591 16.2955H9.84091L6 4.65909H9.56818Z" fill="white"/>
<path d="M19.1207 16.2955V4.65909H27.5071V7.20455H22.2798V9.20455H27.0753V11.75H22.2798V13.75H27.4844V16.2955H19.1207ZM21.5526 3.63636C21.1662 3.63636 20.8385 3.50758 20.5696 3.25C20.3007 2.99242 20.1662 2.68182 20.1662 2.31818C20.1662 1.95455 20.3007 1.64394 20.5696 1.38636C20.8385 1.12879 21.1662 1 21.5526 1C21.9276 1 22.2476 1.12879 22.5128 1.38636C22.7817 1.64394 22.9162 1.95455 22.9162 2.31818C22.9162 2.68182 22.7817 2.99242 22.5128 3.25C22.2476 3.50758 21.9276 3.63636 21.5526 3.63636ZM25.1662 3.63636C24.7798 3.63636 24.4522 3.50758 24.1832 3.25C23.9143 2.99242 23.7798 2.68182 23.7798 2.31818C23.7798 1.95455 23.9143 1.64394 24.1832 1.38636C24.4522 1.12879 24.7798 1 25.1662 1C25.5412 1 25.8613 1.12879 26.1264 1.38636C26.3954 1.64394 26.5298 1.95455 26.5298 2.31818C26.5298 2.68182 26.3954 2.99242 26.1264 3.25C25.8613 3.50758 25.5412 3.63636 25.1662 3.63636Z" fill="white"/>
<path d="M29.0739 16.2955V4.65909H34.0966C34.9602 4.65909 35.7159 4.81629 36.3636 5.13068C37.0114 5.44508 37.5152 5.89773 37.875 6.48864C38.2348 7.07955 38.4148 7.78788 38.4148 8.61364C38.4148 9.44697 38.2292 10.1496 37.858 10.7216C37.4905 11.2936 36.9735 11.7254 36.3068 12.017C35.6439 12.3087 34.8693 12.4545 33.983 12.4545H30.983V10H33.3466C33.7178 10 34.0341 9.95455 34.2955 9.86364C34.5606 9.76894 34.7633 9.61932 34.9034 9.41477C35.0473 9.21023 35.1193 8.94318 35.1193 8.61364C35.1193 8.2803 35.0473 8.00947 34.9034 7.80114C34.7633 7.58902 34.5606 7.43371 34.2955 7.33523C34.0341 7.23295 33.7178 7.18182 33.3466 7.18182H32.233V16.2955H29.0739ZM35.892 10.9545L38.8011 16.2955H35.3693L32.5284 10.9545H35.892Z" fill="white"/>
<path d="M46.0341 8.29545C46.0038 7.91667 45.8617 7.62121 45.608 7.40909C45.358 7.19697 44.9773 7.09091 44.4659 7.09091C44.1402 7.09091 43.8731 7.13068 43.6648 7.21023C43.4602 7.28598 43.3087 7.39015 43.2102 7.52273C43.1117 7.6553 43.0606 7.80682 43.0568 7.97727C43.0492 8.11742 43.0739 8.24432 43.1307 8.35795C43.1913 8.4678 43.286 8.56818 43.4148 8.65909C43.5436 8.74621 43.7083 8.82576 43.9091 8.89773C44.1098 8.9697 44.3485 9.03409 44.625 9.09091L45.5795 9.29545C46.2235 9.43182 46.7746 9.61174 47.233 9.83523C47.6913 10.0587 48.0663 10.322 48.358 10.625C48.6496 10.9242 48.8636 11.2614 49 11.6364C49.1402 12.0114 49.2121 12.4205 49.2159 12.8636C49.2121 13.6288 49.0208 14.2765 48.642 14.8068C48.2633 15.3371 47.7216 15.7405 47.017 16.017C46.3163 16.2936 45.4735 16.4318 44.4886 16.4318C43.4773 16.4318 42.5947 16.2822 41.8409 15.983C41.0909 15.6837 40.5076 15.2235 40.0909 14.6023C39.678 13.9773 39.4697 13.178 39.4659 12.2045H42.4659C42.4848 12.5606 42.5739 12.8598 42.733 13.1023C42.892 13.3447 43.1155 13.5284 43.4034 13.6534C43.6951 13.7784 44.0417 13.8409 44.4432 13.8409C44.7803 13.8409 45.0625 13.7992 45.2898 13.7159C45.517 13.6326 45.6894 13.517 45.8068 13.3693C45.9242 13.2216 45.9848 13.053 45.9886 12.8636C45.9848 12.6856 45.9261 12.5303 45.8125 12.3977C45.7027 12.2614 45.5208 12.1402 45.267 12.0341C45.0133 11.9242 44.6705 11.822 44.2386 11.7273L43.0795 11.4773C42.0492 11.2538 41.2367 10.8807 40.642 10.358C40.0511 9.83144 39.7576 9.11364 39.7614 8.20455C39.7576 7.46591 39.9545 6.82008 40.3523 6.26705C40.7538 5.71023 41.3087 5.27652 42.017 4.96591C42.7292 4.6553 43.5455 4.5 44.4659 4.5C45.4053 4.5 46.2178 4.6572 46.9034 4.97159C47.589 5.28598 48.1174 5.72917 48.4886 6.30114C48.8636 6.86932 49.053 7.53409 49.0568 8.29545H46.0341Z" fill="white"/>
<path d="M50.0994 7.20455V4.65909H60.2131V7.20455H56.7131V16.2955H53.5994V7.20455H50.0994Z" fill="white"/>
<path d="M61.402 16.2955V4.65909H64.5611V9.36364H64.7202L68.2202 4.65909H71.902L67.9702 9.84091L71.9929 16.2955H68.2202L65.6065 11.9318L64.5611 13.2955V16.2955H61.402Z" fill="white"/>
<path d="M75.8622 16.2955H72.4531L76.294 4.65909H80.6122L84.4531 16.2955H81.044L78.4986 7.86364H78.4077L75.8622 16.2955ZM75.2259 11.7045H81.6349V14.0682H75.2259V11.7045Z" fill="white"/>
<path d="M9.56818 4.65909L11.9545 12.8636H12.0455L14.4318 4.65909H18L14.1591 16.2955H9.84091L6 4.65909H9.56818Z" stroke="black" stroke-width="2" mask="url(#path-1-outside-1_1_80)"/>
<path d="M19.1207 16.2955V4.65909H27.5071V7.20455H22.2798V9.20455H27.0753V11.75H22.2798V13.75H27.4844V16.2955H19.1207ZM21.5526 3.63636C21.1662 3.63636 20.8385 3.50758 20.5696 3.25C20.3007 2.99242 20.1662 2.68182 20.1662 2.31818C20.1662 1.95455 20.3007 1.64394 20.5696 1.38636C20.8385 1.12879 21.1662 1 21.5526 1C21.9276 1 22.2476 1.12879 22.5128 1.38636C22.7817 1.64394 22.9162 1.95455 22.9162 2.31818C22.9162 2.68182 22.7817 2.99242 22.5128 3.25C22.2476 3.50758 21.9276 3.63636 21.5526 3.63636ZM25.1662 3.63636C24.7798 3.63636 24.4522 3.50758 24.1832 3.25C23.9143 2.99242 23.7798 2.68182 23.7798 2.31818C23.7798 1.95455 23.9143 1.64394 24.1832 1.38636C24.4522 1.12879 24.7798 1 25.1662 1C25.5412 1 25.8613 1.12879 26.1264 1.38636C26.3954 1.64394 26.5298 1.95455 26.5298 2.31818C26.5298 2.68182 26.3954 2.99242 26.1264 3.25C25.8613 3.50758 25.5412 3.63636 25.1662 3.63636Z" stroke="black" stroke-width="2" mask="url(#path-1-outside-1_1_80)"/>
<path d="M29.0739 16.2955V4.65909H34.0966C34.9602 4.65909 35.7159 4.81629 36.3636 5.13068C37.0114 5.44508 37.5152 5.89773 37.875 6.48864C38.2348 7.07955 38.4148 7.78788 38.4148 8.61364C38.4148 9.44697 38.2292 10.1496 37.858 10.7216C37.4905 11.2936 36.9735 11.7254 36.3068 12.017C35.6439 12.3087 34.8693 12.4545 33.983 12.4545H30.983V10H33.3466C33.7178 10 34.0341 9.95455 34.2955 9.86364C34.5606 9.76894 34.7633 9.61932 34.9034 9.41477C35.0473 9.21023 35.1193 8.94318 35.1193 8.61364C35.1193 8.2803 35.0473 8.00947 34.9034 7.80114C34.7633 7.58902 34.5606 7.43371 34.2955 7.33523C34.0341 7.23295 33.7178 7.18182 33.3466 7.18182H32.233V16.2955H29.0739ZM35.892 10.9545L38.8011 16.2955H35.3693L32.5284 10.9545H35.892Z" stroke="black" stroke-width="2" mask="url(#path-1-outside-1_1_80)"/>
<path d="M46.0341 8.29545C46.0038 7.91667 45.8617 7.62121 45.608 7.40909C45.358 7.19697 44.9773 7.09091 44.4659 7.09091C44.1402 7.09091 43.8731 7.13068 43.6648 7.21023C43.4602 7.28598 43.3087 7.39015 43.2102 7.52273C43.1117 7.6553 43.0606 7.80682 43.0568 7.97727C43.0492 8.11742 43.0739 8.24432 43.1307 8.35795C43.1913 8.4678 43.286 8.56818 43.4148 8.65909C43.5436 8.74621 43.7083 8.82576 43.9091 8.89773C44.1098 8.9697 44.3485 9.03409 44.625 9.09091L45.5795 9.29545C46.2235 9.43182 46.7746 9.61174 47.233 9.83523C47.6913 10.0587 48.0663 10.322 48.358 10.625C48.6496 10.9242 48.8636 11.2614 49 11.6364C49.1402 12.0114 49.2121 12.4205 49.2159 12.8636C49.2121 13.6288 49.0208 14.2765 48.642 14.8068C48.2633 15.3371 47.7216 15.7405 47.017 16.017C46.3163 16.2936 45.4735 16.4318 44.4886 16.4318C43.4773 16.4318 42.5947 16.2822 41.8409 15.983C41.0909 15.6837 40.5076 15.2235 40.0909 14.6023C39.678 13.9773 39.4697 13.178 39.4659 12.2045H42.4659C42.4848 12.5606 42.5739 12.8598 42.733 13.1023C42.892 13.3447 43.1155 13.5284 43.4034 13.6534C43.6951 13.7784 44.0417 13.8409 44.4432 13.8409C44.7803 13.8409 45.0625 13.7992 45.2898 13.7159C45.517 13.6326 45.6894 13.517 45.8068 13.3693C45.9242 13.2216 45.9848 13.053 45.9886 12.8636C45.9848 12.6856 45.9261 12.5303 45.8125 12.3977C45.7027 12.2614 45.5208 12.1402 45.267 12.0341C45.0133 11.9242 44.6705 11.822 44.2386 11.7273L43.0795 11.4773C42.0492 11.2538 41.2367 10.8807 40.642 10.358C40.0511 9.83144 39.7576 9.11364 39.7614 8.20455C39.7576 7.46591 39.9545 6.82008 40.3523 6.26705C40.7538 5.71023 41.3087 5.27652 42.017 4.96591C42.7292 4.6553 43.5455 4.5 44.4659 4.5C45.4053 4.5 46.2178 4.6572 46.9034 4.97159C47.589 5.28598 48.1174 5.72917 48.4886 6.30114C48.8636 6.86932 49.053 7.53409 49.0568 8.29545H46.0341Z" stroke="black" stroke-width="2" mask="url(#path-1-outside-1_1_80)"/>
<path d="M50.0994 7.20455V4.65909H60.2131V7.20455H56.7131V16.2955H53.5994V7.20455H50.0994Z" stroke="black" stroke-width="2" mask="url(#path-1-outside-1_1_80)"/>
<path d="M61.402 16.2955V4.65909H64.5611V9.36364H64.7202L68.2202 4.65909H71.902L67.9702 9.84091L71.9929 16.2955H68.2202L65.6065 11.9318L64.5611 13.2955V16.2955H61.402Z" stroke="black" stroke-width="2" mask="url(#path-1-outside-1_1_80)"/>
<path d="M75.8622 16.2955H72.4531L76.294 4.65909H80.6122L84.4531 16.2955H81.044L78.4986 7.86364H78.4077L75.8622 16.2955ZM75.2259 11.7045H81.6349V14.0682H75.2259V11.7045Z" stroke="black" stroke-width="2" mask="url(#path-1-outside-1_1_80)"/>
</g>
<defs>
<filter id="filter0_d_1_80" x="0.616852" y="0" width="89.2194" height="25.4318" filterUnits="userSpaceOnUse" color-interpolation-filters="sRGB">
<feFlood flood-opacity="0" result="BackgroundImageFix"/>
<feColorMatrix in="SourceAlpha" type="matrix" values="0 0 0 0 0 0 0 0 0 0 0 0 0 0 0 0 0 0 127 0" result="hardAlpha"/>
<feOffset dy="4"/>
<feGaussianBlur stdDeviation="2"/>
<feComposite in2="hardAlpha" operator="out"/>
<feColorMatrix type="matrix" values="0 0 0 0 0 0 0 0 0 0 0 0 0 0 0 0 0 0 0.25 0"/>
<feBlend mode="normal" in2="BackgroundImageFix" result="effect1_dropShadow_1_80"/>
<feBlend mode="normal" in="SourceGraphic" in2="effect1_dropShadow_1_80" result="shape"/>
</filter>
</defs>
</svg>
